<?xml version="1.0" encoding="UTF-8" standalone="no"?>
<svg
   id="Layer_1"
   version="1.1"
   viewBox="0 0 1278 1000"
   sodipodi:docname="be0957d5-74f6-49a1-92ea-a67c43c0f886.svg"
   inkscape:version="1.3.2 (091e20e, 2023-11-25, custom)"
   xmlns:inkscape="http://www.inkscape.org/namespaces/inkscape"
   xmlns:sodipodi="http://sodipodi.sourceforge.net/DTD/sodipodi-0.dtd"
   xmlns="http://www.w3.org/2000/svg"
   xmlns:svg="http://www.w3.org/2000/svg">
  <sodipodi:namedview
     id="namedview10"
     pagecolor="#505050"
     bordercolor="#ffffff"
     borderopacity="1"
     inkscape:showpageshadow="0"
     inkscape:pageopacity="0"
     inkscape:pagecheckerboard="1"
     inkscape:deskcolor="#505050"
     inkscape:export-bgcolor="#26292b00"
     inkscape:zoom="0.60881894"
     inkscape:cx="560.9221"
     inkscape:cy="500.1487"
     inkscape:window-width="1920"
     inkscape:window-height="1057"
     inkscape:window-x="-8"
     inkscape:window-y="-8"
     inkscape:window-maximized="1"
     inkscape:current-layer="Layer_1" />
  <!-- Generator: Adobe Illustrator 29.3.1, SVG Export Plug-In . SVG Version: 2.1.0 Build 151)  -->
  <defs
     id="defs2">
    <style
       id="style1">
      .st0 {
        fill: none;
      }

      .st1 {
        fill: #e6e6e6;
      }

      .st2 {
        fill: #107c10;
      }

      .st3 {
        clip-path: url(#clippath-1);
      }

      .st4 {
        fill: #fff;
      }

      .st5 {
        clip-path: url(#clippath);
      }
    </style>
    <clipPath
       id="clippath">
      <rect
         class="st0"
         x="402.3"
         y="263.3"
         width="473.4"
         height="473.4"
         id="rect1" />
    </clipPath>
    <clipPath
       id="clippath-1">
      <rect
         class="st0"
         x="402.3"
         y="263.3"
         width="473.4"
         height="473.4"
         id="rect2" />
    </clipPath>
  </defs>
  <rect
     class="st1"
     width="1278"
     height="1000"
     id="rect3"
     inkscape:label="rect3"
     x="0"
     y="0"
     style="display:inline;fill:#26292b;fill-opacity:1"
     inkscape:highlight-color="#aaaaaa" />
  <g
     id="Layer_11"
     data-name="Layer_1">
    <g
       id="g10">
      <rect
         class="st2"
         x="281"
         y="142"
         width="716"
         height="716"
         id="rect4"
         style="display:inline" />
      <g
         id="Xbox_2020_Sphere">
        <g
           class="st5"
           clip-path="url(#clippath)"
           id="g9">
          <g
             class="st3"
             clip-path="url(#clippath-1)"
             id="g8">
            <g
               id="g7">
              <path
                 class="st4"
                 d="M639,453h0c70.4,53.8,191.7,186.8,154.5,224-89,78.3-222,78.3-311,0-37.2-37.2,84.1-171.2,154.5-224h0"
                 id="path4"
                 style="fill:#26292b;fill-opacity:1" />
              <path
                 class="st4"
                 d="M762.2,298.5c-36.2-21.5-75.3-35.2-123.2-35.2s-87.1,12.7-123.2,35.2v1h1c46-9.8,115.4,30.3,122.3,33.3h0c6.8-3.9,76.3-44,122.3-33.3h1v-1"
                 id="path5"
                 style="fill:#26292b;fill-opacity:1" />
              <path
                 class="st4"
                 d="M473.7,331.8h0c-84.1,83.1-93.9,217.1-21.5,311h1v-1c-17.6-55.8,74.3-190.7,122.3-247.5h0c-72.4-72.4-96.8-64.6-100.7-62.6"
                 id="path6"
                 style="fill:#26292b;fill-opacity:1" />
              <path
                 class="st4"
                 d="M703.6,393.4h0c47,56.7,139.9,191.7,122.3,247.5v1c0,1,0,0,1,0,71.4-94.9,62.6-226.9-21.5-311h0c-3.9-2-28.4-9.8-100.7,62.6"
                 id="path7"
                 style="fill:#26292b;fill-opacity:1" />
            </g>
          </g>
        </g>
      </g>
    </g>
  </g>
</svg>
